<?xml version="1.0" encoding="iso-8859-1"?>
<!-- Generator: Adobe Illustrator 19.0.0, SVG Export Plug-In . SVG Version: 6.00 Build 0)  -->
<svg version="1.1" id="Layer_1" xmlns="http://www.w3.org/2000/svg" xmlns:xlink="http://www.w3.org/1999/xlink" x="0px" y="0px"
	 viewBox="0 0 512 512" style="enable-background:new 0 0 512 512;" xml:space="preserve">
<g>
	<polygon style="fill:#E8EDEE;" points="0,211.862 512,211.862 512,123.586 0,123.586 	"/>
	<polygon style="fill:#0F81E0;" points="256,388.414 476.69,388.414 476.69,211.862 256,211.862 	"/>
	<path style="fill:#ED7161;" d="M273.655,185.379c-2.26,0-4.52-0.865-6.241-2.586l-17.655-17.655c-3.452-3.452-3.452-9.031,0-12.482
		c3.452-3.452,9.031-3.452,12.482,0l11.414,11.414l11.414-11.414c3.452-3.452,9.031-3.452,12.482,0
		c3.452,3.452,3.452,9.031,0,12.482l-17.655,17.655C278.175,184.514,275.915,185.379,273.655,185.379"/>
	<path style="fill:#7383BF;" d="M476.69,176.552H326.621c-4.882,0-8.828-3.955-8.828-8.828s3.946-8.828,8.828-8.828H476.69
		c4.882,0,8.828,3.955,8.828,8.828S481.571,176.552,476.69,176.552"/>
	<g>
		<path style="fill:#FFFFFF;" d="M441.379,256h-61.793c-4.882,0-8.828-3.955-8.828-8.828c0-4.873,3.946-8.828,8.828-8.828h61.793
			c4.882,0,8.828,3.955,8.828,8.828C450.207,252.045,446.261,256,441.379,256"/>
		<path style="fill:#FFFFFF;" d="M344.276,256h-17.655c-4.882,0-8.828-3.955-8.828-8.828c0-4.873,3.946-8.828,8.828-8.828h17.655
			c4.882,0,8.828,3.955,8.828,8.828C353.103,252.045,349.158,256,344.276,256"/>
		<path style="fill:#FFFFFF;" d="M361.931,326.621h-35.31c-4.882,0-8.828-3.955-8.828-8.828c0-4.873,3.946-8.828,8.828-8.828h35.31
			c4.882,0,8.828,3.955,8.828,8.828C370.759,322.666,366.813,326.621,361.931,326.621"/>
		<path style="fill:#FFFFFF;" d="M441.379,326.621h-44.138c-4.882,0-8.828-3.955-8.828-8.828c0-4.873,3.946-8.828,8.828-8.828
			h44.138c4.882,0,8.828,3.955,8.828,8.828C450.207,322.666,446.261,326.621,441.379,326.621"/>
	</g>
	<path style="fill:#42B05C;" d="M70.621,176.552H35.31c-4.882,0-8.828-3.955-8.828-8.828s3.946-8.828,8.828-8.828h35.31
		c4.882,0,8.828,3.955,8.828,8.828S75.502,176.552,70.621,176.552"/>
	<path style="fill:#ECBA16;" d="M176.552,176.552h-70.621c-4.882,0-8.828-3.955-8.828-8.828s3.946-8.828,8.828-8.828h70.621
		c4.882,0,8.828,3.955,8.828,8.828S181.433,176.552,176.552,176.552"/>
	<g>
		<path style="fill:#FFFFFF;" d="M300.138,247.172c0-4.873-3.955-8.828-8.828-8.828c-4.873,0-8.828,3.955-8.828,8.828
			c0,4.873,3.955,8.828,8.828,8.828C296.183,256,300.138,252.045,300.138,247.172"/>
		<path style="fill:#FFFFFF;" d="M300.138,282.483c0-4.873-3.955-8.828-8.828-8.828c-4.873,0-8.828,3.955-8.828,8.828
			s3.955,8.828,8.828,8.828C296.183,291.31,300.138,287.356,300.138,282.483"/>
		<path style="fill:#FFFFFF;" d="M441.379,291.31H326.621c-4.882,0-8.828-3.955-8.828-8.828s3.946-8.828,8.828-8.828h114.759
			c4.882,0,8.828,3.955,8.828,8.828S446.261,291.31,441.379,291.31"/>
		<path style="fill:#FFFFFF;" d="M300.138,317.793c0-4.873-3.955-8.828-8.828-8.828c-4.873,0-8.828,3.955-8.828,8.828
			c0,4.873,3.955,8.828,8.828,8.828C296.183,326.621,300.138,322.666,300.138,317.793"/>
		<path style="fill:#FFFFFF;" d="M441.379,361.931H326.621c-4.882,0-8.828-3.955-8.828-8.828s3.946-8.828,8.828-8.828h114.759
			c4.882,0,8.828,3.955,8.828,8.828S446.261,361.931,441.379,361.931"/>
		<path style="fill:#FFFFFF;" d="M300.138,353.103c0-4.873-3.955-8.828-8.828-8.828c-4.873,0-8.828,3.955-8.828,8.828
			s3.955,8.828,8.828,8.828C296.183,361.931,300.138,357.976,300.138,353.103"/>
	</g>
</g>
<g>
</g>
<g>
</g>
<g>
</g>
<g>
</g>
<g>
</g>
<g>
</g>
<g>
</g>
<g>
</g>
<g>
</g>
<g>
</g>
<g>
</g>
<g>
</g>
<g>
</g>
<g>
</g>
<g>
</g>
</svg>
